<svg width="59" height="63" viewBox="0 0 59 63" fill="none" xmlns="http://www.w3.org/2000/svg">
<path d="M3.08239 55V29.5455H6.16477V52.2656H17.9972V55H3.08239ZM34.4034 47.1946V35.9091H37.3366V55H34.4034V51.7685H34.2045C33.7571 52.7379 33.0611 53.5624 32.1165 54.2418C31.1719 54.913 29.9787 55.2486 28.5369 55.2486C27.3438 55.2486 26.2831 54.9876 25.3551 54.4656C24.4271 53.9353 23.6979 53.1398 23.1676 52.0792C22.6373 51.0103 22.3722 49.6638 22.3722 48.0398V35.9091H25.3054V47.8409C25.3054 49.233 25.6948 50.3433 26.4737 51.1719C27.2609 52.0005 28.2635 52.4148 29.4815 52.4148C30.2107 52.4148 30.9523 52.2283 31.7063 51.8555C32.4686 51.4826 33.1067 50.9109 33.6204 50.1403C34.1424 49.3697 34.4034 48.3878 34.4034 47.1946ZM44.8966 35.9091L49.4704 43.7145L54.0443 35.9091H57.425L51.2602 45.4545L57.425 55H54.0443L49.4704 47.5923L44.8966 55H41.5159L47.5812 45.4545L41.5159 35.9091H44.8966Z" fill="#006B59"/>
<path fill-rule="evenodd" clip-rule="evenodd" d="M16.4342 25.4196C16.6614 25.7013 16.9007 25.9663 17.146 26.2146C18.9617 22.0642 21.1655 18.9154 23.3955 16.0775C23.4035 12.6887 24.236 9.19558 26.3654 7.40728C25.0724 10.072 25.0664 12.8765 25.1891 13.8218C32.1584 5.81097 38.9728 3.59282 38.9728 3.59282C34.8307 6.33472 31.6295 9.22896 29.0879 12.0627C31.2756 10.8754 35.3213 11.5702 35.3213 11.5702C27.4833 13.8802 27.3587 14.1515 27.2903 13.9991C25.8245 15.8772 24.4471 17.9117 23.3955 19.6061C24.7628 18.9968 26.7554 18.5648 30.1697 18.6211C30.1697 18.6211 23.0074 20.1277 21.244 22.494C20.1963 24.3783 19.384 26.0372 18.7667 27.3226C21.6944 29.3593 29.5001 29.3697 32.6349 24.3783C36.017 18.9988 36.1457 9.928 44.796 0.752832C47.3838 -1.99116 24.616 3.1087 18.268 10.4977C14.3571 15.0383 12.837 20.9478 16.4342 25.4196Z" fill="#006B59"/>
<path fill-rule="evenodd" clip-rule="evenodd" d="M16.7097 23.2724C16.7097 23.2724 15.4771 25.7347 14.2747 28.5601C13.0722 31.3854 13.3155 32.7397 13.0179 32.8983C12.7163 33.061 16.3196 32.9797 16.3196 32.9797C16.3196 32.9797 15.4489 29.1652 17.7191 24.9188L16.7097 23.2724Z" fill="#006B59"/>
</svg>
