<svg width="60" height="57" viewBox="0 0 60 57" fill="none" xmlns="http://www.w3.org/2000/svg">
<path d="M2.59 48V22.8H6.3V48H2.59ZM4.41 48V44.955H18.97V48H4.41ZM27.5056 48.35C26.3156 48.35 25.2656 48.105 24.3556 47.615C23.4456 47.1017 22.734 46.4017 22.2206 45.515C21.7306 44.6283 21.4856 43.6133 21.4856 42.47V30.15H25.1256V41.63C25.1256 42.8667 25.429 43.7883 26.0356 44.395C26.6423 45.0017 27.5056 45.305 28.6256 45.305C29.629 45.305 30.5156 45.0717 31.2856 44.605C32.079 44.1383 32.6973 43.4967 33.1406 42.68C33.6073 41.84 33.8406 40.8717 33.8406 39.775L34.2956 44.045C33.7123 45.3517 32.814 46.4017 31.6006 47.195C30.4106 47.965 29.0456 48.35 27.5056 48.35ZM33.9806 48V43.8H33.8406V30.15H37.4456V48H33.9806ZM54.0425 48L48.3375 39.845L41.0925 30.15H45.2225L50.4375 37.605L58.1725 48H54.0425ZM48.5825 37.605L53.9025 30.15H57.8925L50.4025 40.09L48.5825 37.605ZM50.0525 40.195L44.3125 48H40.2875L48.3025 37.64L50.0525 40.195Z" fill="#0E4446"/>
<path d="M51.9428 27C55.8405 27 59 24.8667 59 22.2353C59 20.1497 57.0153 18.377 54.2515 17.7314C53.8588 15.351 50.8686 13.5 47.2381 13.5C43.3406 13.5 40.1809 15.6333 40.1809 18.2647C40.1809 18.8467 40.3355 19.4044 40.6185 19.9199C40.2867 19.8761 39.9438 19.853 39.5928 19.853C36.6697 19.853 34.3 21.4528 34.3 23.4264C34.3 25.4001 36.6697 27 39.5928 27H51.9428Z" fill="#558C9C"/>
<path d="M58.1473 16.9429C57.7 16.6964 57.222 16.4765 56.7192 16.2863C55.4668 13.4496 51.6166 11.475 47.238 11.475C42.0058 11.475 37.5036 14.3088 37.3358 18.0483C34.8259 18.5483 32.7557 19.8616 31.8884 21.6H29.1428C24.6457 21.6 21 19.0401 21 15.8823C21 12.7246 24.6457 10.1647 29.1428 10.1647C29.6827 10.1647 30.2102 10.2016 30.7207 10.272C30.2854 9.44703 30.0476 8.55477 30.0476 7.62353C30.0476 3.41316 34.9085 0 40.9048 0C46.4902 0 51.0905 2.96151 51.6947 6.77022C55.9467 7.80332 59 10.6395 59 13.9764C59 15.0287 58.6964 16.0311 58.1473 16.9429Z" fill="#558C9C"/>
</svg>
